<svg fill="#1C2033" width="52" height="52" viewBox="0 0 64 64" xmlns="http://www.w3.org/2000/svg"><path d="M35.8086 31.9996L42.066 37.3747L49.0642 43.3863V31.9996V20.9463L42.4364 26.4763L35.8086 31.9996Z"/><path d="M3 42.333V51.9997C3 54.2097 4.77957 55.9997 6.97669 55.9997H16.587V48.6597V42.333H9.79351H3Z"/><path d="M16.587 8L3 21.6667H9.79351H16.587V15.3229V8Z"/><path d="M16.587 21.667H3V42.3336H16.587V21.667Z"/><path d="M57.7446 13.7864L49.0622 20.9464V43.3864L57.7844 50.5798C59.0901 51.6065 60.9989 50.6697 60.9989 48.9997V15.333C60.9989 13.643 59.047 12.7164 57.7446 13.7864ZM35.8066 31.9997V42.333H16.5859V55.9997H45.0855C47.2826 55.9997 49.0622 54.2097 49.0622 51.9997V43.3864L35.8066 31.9997Z"/><path d="M45.0855 8H16.5859V21.6667H35.8066V32L49.0622 20.9533V12C49.0622 9.79 47.2826 8 45.0855 8Z"/></svg>